<?xml version="1.0" encoding="utf-8"?>
<!-- Generator: Adobe Illustrator 27.5.0, SVG Export Plug-In . SVG Version: 6.00 Build 0)  -->
<svg version="1.1" xmlns="http://www.w3.org/2000/svg" xmlns:xlink="http://www.w3.org/1999/xlink" x="0px" y="0px"
	 viewBox="0 0 1200 1200" style="enable-background:new 0 0 1200 1200;" xml:space="preserve">
<g id="Background">
	<rect y="0" style="fill:#1E353B;" width="1200" height="1200"/>
</g>
<g id="Graphic_Elements">
	<g>
		
			<path style="fill:none;stroke:#008AD3;stroke-width:18.8489;stroke-linecap:round;stroke-linejoin:round;stroke-miterlimit:10;" d="
			M1048.141,727.289C830.26,643.107,600,789.186,600,789.186s-230.26-146.079-448.141-61.898"/>
		
			<path style="fill:#00A7BD;stroke:#00A7BD;stroke-width:18.8489;stroke-linecap:round;stroke-linejoin:round;stroke-miterlimit:10;" d="
			M1048.141,660.17l-126.272-133.7c0,0-55.89-3.391-121.377,11.346c-54.056,12.165-102.096,43.078-136.5,86.51
			c-39.155,49.429-59.716,90.784-62.682,96.93C619.996,709.803,839.719,579.643,1048.141,660.17z"/>
		
			<path style="fill:#00A7BD;stroke:#00A7BD;stroke-width:18.8489;stroke-linecap:round;stroke-linejoin:round;stroke-miterlimit:10;" d="
			M154.478,660.17l126.272-133.7c0,0,55.89-3.391,121.377,11.346c54.056,12.165,102.096,43.078,136.5,86.51
			c39.155,49.429,59.716,90.784,62.682,96.93C582.623,709.803,362.9,579.643,154.478,660.17z"/>
		
			<path style="fill:#00B6EF;stroke:#00B6EF;stroke-width:18.8489;stroke-linecap:round;stroke-linejoin:round;stroke-miterlimit:10;" d="
			M446.877,410.814l-179.943,34.333C493.962,494.828,600,722.068,600,722.068C610.227,512.346,446.877,410.814,446.877,410.814z"/>
		
			<path style="fill:#008AD3;stroke:#008AD3;stroke-width:18.8489;stroke-linecap:round;stroke-linejoin:round;stroke-miterlimit:10;" d="
			M754.045,410.814l179.943,34.333c-227.028,49.681-333.066,276.921-333.066,276.921
			C590.695,512.346,754.045,410.814,754.045,410.814z"/>
	</g>
</g>
</svg>
